<?xml version="1.0" encoding="UTF-8"?>
<svg xmlns="http://www.w3.org/2000/svg" xmlns:xlink="http://www.w3.org/1999/xlink" width="20pt" height="20pt" viewBox="0 0 20 20" version="1.1">
<g id="surface1">
<path style=" stroke:none;fill-rule:nonzero;fill:rgb(0%,0%,0%);fill-opacity:1;" d="M 9.257812 1.761719 C 7.816406 1.890625 6.339844 2.464844 5.144531 3.367188 C 4.707031 3.695312 3.9375 4.472656 3.605469 4.921875 C 3.265625 5.378906 2.890625 6.023438 2.695312 6.496094 L 2.542969 6.855469 L 2.25 6.898438 C 1.179688 7.066406 0.382812 7.753906 0.0898438 8.765625 C -0.0195312 9.132812 -0.03125 9.726562 0.0585938 10.113281 C 0.300781 11.136719 1.25 11.96875 2.273438 12.058594 L 2.535156 12.082031 L 2.636719 12.339844 C 2.695312 12.480469 2.832031 12.773438 2.945312 12.988281 C 3.875 14.773438 5.515625 16.167969 7.441406 16.8125 C 7.738281 16.910156 7.757812 16.925781 7.871094 17.113281 C 8.261719 17.773438 9.183594 18.277344 10 18.277344 C 10.816406 18.277344 11.738281 17.773438 12.128906 17.113281 C 12.242188 16.921875 12.253906 16.914062 12.652344 16.777344 C 14.539062 16.121094 16.140625 14.746094 17.054688 12.988281 C 17.167969 12.773438 17.304688 12.480469 17.363281 12.339844 L 17.464844 12.082031 L 17.726562 12.058594 C 18.75 11.96875 19.699219 11.136719 19.941406 10.113281 C 20.03125 9.726562 20.019531 9.132812 19.910156 8.765625 C 19.617188 7.746094 18.75 7.011719 17.699219 6.890625 C 17.527344 6.871094 17.449219 6.84375 17.433594 6.800781 C 17.417969 6.765625 17.328125 6.554688 17.226562 6.328125 C 16.910156 5.621094 16.386719 4.839844 15.851562 4.273438 C 14.128906 2.453125 11.738281 1.542969 9.257812 1.761719 Z M 11.746094 2.960938 C 13.007812 3.308594 14.070312 3.921875 14.957031 4.816406 C 15.742188 5.609375 16.222656 6.402344 16.601562 7.519531 L 16.75 7.949219 L 16.917969 7.929688 C 17.011719 7.917969 17.25 7.910156 17.445312 7.910156 C 17.773438 7.910156 17.816406 7.917969 18.09375 8.058594 C 18.90625 8.460938 19.21875 9.351562 18.835938 10.171875 C 18.554688 10.777344 17.855469 11.148438 17.1875 11.050781 C 16.71875 10.984375 16.757812 10.957031 16.589844 11.480469 C 16.132812 12.90625 15.175781 14.171875 13.902344 15.023438 C 13.535156 15.269531 12.902344 15.613281 12.660156 15.695312 L 12.539062 15.738281 L 12.539062 15.574219 C 12.539062 15.339844 12.441406 14.964844 12.308594 14.667969 L 12.195312 14.417969 L 12.269531 14.320312 C 12.3125 14.265625 12.390625 14.125 12.449219 14 C 12.535156 13.808594 12.546875 13.742188 12.53125 13.496094 C 12.496094 12.945312 12.171875 12.527344 11.542969 12.222656 C 11.019531 11.96875 10.699219 11.902344 10 11.902344 C 9.503906 11.902344 9.339844 11.917969 9.082031 11.988281 C 8.589844 12.121094 8.171875 12.339844 7.894531 12.609375 C 7.570312 12.929688 7.480469 13.128906 7.480469 13.554688 C 7.480469 13.894531 7.542969 14.078125 7.738281 14.328125 C 7.804688 14.414062 7.804688 14.425781 7.695312 14.664062 C 7.566406 14.945312 7.460938 15.363281 7.460938 15.585938 L 7.460938 15.738281 L 7.339844 15.695312 C 7.097656 15.613281 6.464844 15.269531 6.097656 15.023438 C 4.824219 14.171875 3.867188 12.90625 3.410156 11.480469 C 3.242188 10.960938 3.289062 10.996094 2.851562 11.050781 C 2.132812 11.144531 1.460938 10.789062 1.164062 10.171875 C 0.78125 9.359375 1.097656 8.457031 1.90625 8.058594 C 2.183594 7.917969 2.226562 7.910156 2.554688 7.910156 C 2.75 7.910156 2.988281 7.917969 3.082031 7.929688 L 3.25 7.949219 L 3.398438 7.519531 C 3.597656 6.925781 3.753906 6.578125 4 6.160156 C 4.652344 5.050781 5.660156 4.105469 6.796875 3.535156 C 7.074219 3.394531 7.152344 3.371094 7.128906 3.425781 C 7.074219 3.558594 7.0625 4.082031 7.109375 4.308594 C 7.335938 5.410156 8.453125 6.109375 9.980469 6.105469 C 10.785156 6.101562 11.320312 5.925781 11.769531 5.511719 C 12.113281 5.191406 12.207031 5.007812 12.203125 4.648438 C 12.203125 4.328125 12.109375 4.085938 11.871094 3.785156 C 11.617188 3.460938 11.09375 3.207031 10.5625 3.144531 C 10.140625 3.097656 9.492188 3.230469 9.308594 3.40625 C 9.105469 3.597656 9.113281 4 9.328125 4.199219 C 9.457031 4.320312 9.558594 4.320312 9.964844 4.214844 C 10.320312 4.125 10.527344 4.136719 10.820312 4.261719 C 11.042969 4.359375 11.171875 4.480469 11.171875 4.59375 C 11.171875 4.710938 10.953125 4.894531 10.675781 5.003906 C 10.480469 5.082031 10.378906 5.09375 9.941406 5.097656 C 9.519531 5.097656 9.386719 5.082031 9.140625 5.003906 C 8.761719 4.886719 8.511719 4.757812 8.316406 4.582031 C 7.925781 4.230469 7.953125 3.875 8.402344 3.441406 C 8.851562 3.007812 9.609375 2.804688 10.683594 2.828125 C 11.234375 2.839844 11.359375 2.855469 11.746094 2.960938 Z M 10.816406 13.007812 C 11.214844 13.140625 11.523438 13.375 11.523438 13.542969 C 11.523438 13.660156 11.492188 13.65625 11.203125 13.5 C 10.476562 13.101562 9.523438 13.101562 8.796875 13.5 C 8.507812 13.65625 8.476562 13.660156 8.476562 13.539062 C 8.476562 13.480469 8.535156 13.394531 8.636719 13.300781 C 8.84375 13.117188 9.019531 13.042969 9.550781 12.914062 C 9.59375 12.902344 9.839844 12.902344 10.097656 12.910156 C 10.449219 12.917969 10.628906 12.941406 10.816406 13.007812 Z M 10.527344 14.300781 C 10.816406 14.414062 11.011719 14.5625 11.210938 14.828125 C 11.554688 15.277344 11.617188 15.84375 11.386719 16.359375 C 11.246094 16.675781 10.882812 17.023438 10.558594 17.152344 C 10.242188 17.277344 9.757812 17.277344 9.441406 17.152344 C 9.121094 17.027344 8.757812 16.675781 8.609375 16.359375 C 8.507812 16.140625 8.496094 16.070312 8.496094 15.722656 C 8.496094 15.375 8.507812 15.308594 8.601562 15.117188 C 8.898438 14.515625 9.511719 14.148438 10.117188 14.207031 C 10.234375 14.21875 10.417969 14.261719 10.527344 14.300781 Z M 10.527344 14.300781 "/>
<path style=" stroke:none;fill-rule:nonzero;fill:rgb(0%,0%,0%);fill-opacity:1;" d="M 11.691406 9.136719 C 11.296875 9.382812 11.320312 10.085938 11.730469 10.296875 C 11.894531 10.382812 12.230469 10.378906 12.382812 10.285156 C 12.738281 10.078125 12.789062 9.515625 12.476562 9.214844 C 12.355469 9.097656 12.316406 9.082031 12.078125 9.070312 C 11.867188 9.0625 11.792969 9.074219 11.691406 9.136719 Z M 11.691406 9.136719 "/>
<path style=" stroke:none;fill-rule:nonzero;fill:rgb(0%,0%,0%);fill-opacity:1;" d="M 7.636719 9.214844 C 7.476562 9.3125 7.402344 9.40625 7.34375 9.585938 C 7.25 9.875 7.386719 10.253906 7.628906 10.378906 C 7.785156 10.457031 8.113281 10.457031 8.269531 10.378906 C 8.6875 10.160156 8.695312 9.417969 8.28125 9.210938 C 8.101562 9.117188 7.789062 9.121094 7.636719 9.214844 Z M 7.636719 9.214844 "/>
</g>
</svg>
