<?xml version="1.0" encoding="UTF-8"?>
<svg xmlns="http://www.w3.org/2000/svg" xmlns:xlink="http://www.w3.org/1999/xlink" width="15pt" height="15pt" viewBox="0 0 15 15" version="1.1">
<g id="surface1">
<path style=" stroke:none;fill-rule:nonzero;fill:rgb(0%,0%,0%);fill-opacity:1;" d="M 13.5 0.5 L 1.5 0.5 C 0.6875 0.5 0 1.1875 0 2 L 0 10.25 C 0 11.0625 0.6875 11.75 1.5 11.75 L 8.640625 11.75 L 11.066406 14.417969 C 11.113281 14.472656 11.179688 14.5 11.25 14.5 C 11.28125 14.5 11.3125 14.496094 11.339844 14.484375 C 11.4375 14.445312 11.5 14.351562 11.5 14.25 L 11.5 11.75 L 13.5 11.75 C 14.3125 11.75 15 11.0625 15 10.25 L 15 2 C 15 1.1875 14.3125 0.5 13.5 0.5 Z M 14.5 10.25 C 14.5 10.792969 14.042969 11.25 13.5 11.25 L 11.25 11.25 C 11.113281 11.25 11 11.363281 11 11.5 L 11 13.601562 L 8.9375 11.335938 L 7.691406 9.882812 C 7.601562 9.777344 7.441406 9.765625 7.335938 9.855469 C 7.234375 9.945312 7.21875 10.105469 7.308594 10.210938 L 8.207031 11.25 L 1.5 11.25 C 0.957031 11.25 0.5 10.792969 0.5 10.25 L 0.5 2 C 0.5 1.457031 0.957031 1 1.5 1 L 13.5 1 C 14.042969 1 14.5 1.457031 14.5 2 Z M 14.5 10.25 "/>
</g>
</svg>
