<?xml version="1.0" encoding="UTF-8"?>
<svg xmlns="http://www.w3.org/2000/svg" xmlns:xlink="http://www.w3.org/1999/xlink" width="13pt" height="13pt" viewBox="0 0 13 13" version="1.1">
<g id="surface1">
<path style=" stroke:none;fill-rule:nonzero;fill:rgb(0%,0%,0%);fill-opacity:1;" d="M 11.699219 0.433594 L 1.300781 0.433594 C 0.59375 0.433594 0 1.027344 0 1.734375 L 0 8.882812 C 0 9.589844 0.59375 10.183594 1.300781 10.183594 L 7.488281 10.183594 L 9.589844 12.496094 C 9.632812 12.542969 9.691406 12.566406 9.75 12.566406 C 9.777344 12.566406 9.800781 12.5625 9.828125 12.550781 C 9.910156 12.519531 9.964844 12.441406 9.964844 12.351562 L 9.964844 10.183594 L 11.699219 10.183594 C 12.40625 10.183594 13 9.589844 13 8.882812 L 13 1.734375 C 13 1.027344 12.40625 0.433594 11.699219 0.433594 Z M 12.566406 8.882812 C 12.566406 9.351562 12.167969 9.75 11.699219 9.75 L 9.75 9.75 C 9.628906 9.75 9.535156 9.847656 9.535156 9.964844 L 9.535156 11.789062 L 7.746094 9.824219 L 6.664062 8.566406 C 6.585938 8.476562 6.449219 8.464844 6.359375 8.542969 C 6.269531 8.621094 6.257812 8.757812 6.335938 8.847656 L 7.109375 9.75 L 1.300781 9.75 C 0.832031 9.75 0.433594 9.351562 0.433594 8.882812 L 0.433594 1.734375 C 0.433594 1.261719 0.832031 0.867188 1.300781 0.867188 L 11.699219 0.867188 C 12.167969 0.867188 12.566406 1.261719 12.566406 1.734375 Z M 12.566406 8.882812 "/>
</g>
</svg>
