<?xml version="1.0" encoding="UTF-8"?>
<svg xmlns="http://www.w3.org/2000/svg" xmlns:xlink="http://www.w3.org/1999/xlink" width="20pt" height="20pt" viewBox="0 0 20 20" version="1.1">
<g id="surface1">
<path style=" stroke:none;fill-rule:nonzero;fill:rgb(0%,0%,0%);fill-opacity:1;" d="M 10.015625 0 C 4.492188 0 0 4.492188 0 10.015625 C 0 15.539062 4.492188 20.03125 10.015625 20.03125 C 15.539062 20.03125 20.03125 15.539062 20.03125 10.015625 C 20.03125 4.492188 15.539062 0 10.015625 0 Z M 10.015625 17.902344 C 5.667969 17.902344 2.132812 14.363281 2.132812 10.015625 C 2.132812 5.667969 5.667969 2.132812 10.015625 2.132812 C 14.363281 2.132812 17.902344 5.667969 17.902344 10.015625 C 17.902344 14.363281 14.363281 17.902344 10.015625 17.902344 Z M 10.015625 17.902344 "/>
<path style=" stroke:none;fill-rule:nonzero;fill:rgb(0%,0%,0%);fill-opacity:1;" d="M 15.238281 9.707031 L 10.734375 9.707031 L 10.734375 4.292969 C 10.734375 3.839844 10.367188 3.46875 9.910156 3.46875 C 9.453125 3.46875 9.085938 3.839844 9.085938 4.292969 L 9.085938 10.53125 C 9.085938 10.988281 9.453125 11.355469 9.910156 11.355469 L 15.238281 11.355469 C 15.691406 11.355469 16.0625 10.988281 16.0625 10.53125 C 16.0625 10.078125 15.691406 9.707031 15.238281 9.707031 Z M 15.238281 9.707031 "/>
</g>
</svg>
