<?xml version="1.0" encoding="UTF-8"?>
<svg xmlns="http://www.w3.org/2000/svg" xmlns:xlink="http://www.w3.org/1999/xlink" width="38pt" height="38pt" viewBox="0 0 38 38" version="1.1">
<g id="surface1">
<path style=" stroke:none;fill-rule:nonzero;fill:rgb(0%,0%,0%);fill-opacity:1;" d="M 34.722656 32.050781 L 32 27.519531 C 30.746094 25.429688 30.082031 23.035156 30.082031 20.59375 L 30.082031 16.625 C 30.082031 10.515625 25.109375 5.542969 19 5.542969 C 12.890625 5.542969 7.917969 10.515625 7.917969 16.625 L 7.917969 20.59375 C 7.917969 23.035156 7.253906 25.429688 6 27.519531 L 3.277344 32.050781 C 3.132812 32.296875 3.128906 32.601562 3.269531 32.847656 C 3.410156 33.097656 3.671875 33.25 3.957031 33.25 L 34.042969 33.25 C 34.328125 33.25 34.589844 33.097656 34.730469 32.847656 C 34.871094 32.601562 34.867188 32.296875 34.722656 32.050781 Z M 5.355469 31.667969 L 7.355469 28.332031 C 8.757812 25.996094 9.5 23.320312 9.5 20.59375 L 9.5 16.625 C 9.5 11.386719 13.761719 7.125 19 7.125 C 24.238281 7.125 28.5 11.386719 28.5 16.625 L 28.5 20.59375 C 28.5 23.320312 29.242188 25.996094 30.640625 28.332031 L 32.644531 31.667969 Z M 5.355469 31.667969 "/>
<path style=" stroke:none;fill-rule:nonzero;fill:rgb(0%,0%,0%);fill-opacity:1;" d="M 19 0 C 17.253906 0 15.832031 1.421875 15.832031 3.167969 L 15.832031 6.332031 C 15.832031 6.769531 16.1875 7.125 16.625 7.125 C 17.0625 7.125 17.417969 6.769531 17.417969 6.332031 L 17.417969 3.167969 C 17.417969 2.292969 18.125 1.582031 19 1.582031 C 19.875 1.582031 20.582031 2.292969 20.582031 3.167969 L 20.582031 6.332031 C 20.582031 6.769531 20.9375 7.125 21.375 7.125 C 21.8125 7.125 22.167969 6.769531 22.167969 6.332031 L 22.167969 3.167969 C 22.167969 1.421875 20.746094 0 19 0 Z M 19 0 "/>
<path style=" stroke:none;fill-rule:nonzero;fill:rgb(0%,0%,0%);fill-opacity:1;" d="M 22.425781 32.058594 C 22.203125 31.679688 21.71875 31.558594 21.339844 31.773438 C 20.964844 31.996094 20.835938 32.480469 21.058594 32.859375 C 21.265625 33.207031 21.375 33.628906 21.375 34.042969 C 21.375 35.351562 20.3125 36.417969 19 36.417969 C 17.691406 36.417969 16.625 35.351562 16.625 34.042969 C 16.625 33.628906 16.738281 33.207031 16.945312 32.859375 C 17.164062 32.480469 17.039062 31.996094 16.660156 31.773438 C 16.28125 31.558594 15.796875 31.679688 15.578125 32.058594 C 15.226562 32.65625 15.042969 33.34375 15.042969 34.042969 C 15.042969 36.226562 16.816406 38 19 38 C 21.183594 38 22.957031 36.226562 22.960938 34.042969 C 22.960938 33.34375 22.777344 32.65625 22.425781 32.058594 Z M 22.425781 32.058594 "/>
</g>
</svg>
