<?xml version="1.0" encoding="UTF-8"?>
<svg xmlns="http://www.w3.org/2000/svg" xmlns:xlink="http://www.w3.org/1999/xlink" width="20pt" height="20pt" viewBox="0 0 20 20" version="1.1">
<g id="surface1">
<path style=" stroke:none;fill-rule:nonzero;fill:rgb(0%,0%,0%);fill-opacity:1;" d="M 16.640625 3.476562 C 15.113281 1.269531 12.691406 0 10 0 C 7.308594 0 4.886719 1.269531 3.363281 3.476562 C 1.84375 5.675781 1.492188 8.460938 2.421875 10.917969 C 2.671875 11.589844 3.066406 12.242188 3.59375 12.855469 L 9.46875 19.753906 C 9.601562 19.910156 9.796875 20 10 20 C 10.207031 20 10.398438 19.910156 10.53125 19.753906 L 16.40625 12.855469 C 16.9375 12.242188 17.332031 11.589844 17.578125 10.921875 C 18.507812 8.460938 18.15625 5.675781 16.640625 3.476562 Z M 16.269531 10.433594 C 16.078125 10.949219 15.765625 11.457031 15.34375 11.945312 C 15.34375 11.945312 15.34375 11.945312 15.34375 11.949219 L 10 18.222656 L 4.65625 11.945312 C 4.234375 11.457031 3.921875 10.949219 3.730469 10.429688 C 2.960938 8.394531 3.253906 6.09375 4.511719 4.273438 C 5.773438 2.445312 7.773438 1.398438 10 1.398438 C 12.226562 1.398438 14.226562 2.445312 15.488281 4.273438 C 16.746094 6.09375 17.039062 8.394531 16.269531 10.433594 Z M 16.269531 10.433594 "/>
<path style=" stroke:none;fill-rule:nonzero;fill:rgb(0%,0%,0%);fill-opacity:1;" d="M 10 4.148438 C 7.839844 4.148438 6.085938 5.90625 6.085938 8.066406 C 6.085938 10.226562 7.839844 11.980469 10 11.980469 C 12.160156 11.980469 13.917969 10.226562 13.917969 8.066406 C 13.917969 5.90625 12.160156 4.148438 10 4.148438 Z M 10 10.582031 C 8.613281 10.582031 7.484375 9.453125 7.484375 8.066406 C 7.484375 6.675781 8.613281 5.546875 10 5.546875 C 11.386719 5.546875 12.519531 6.675781 12.519531 8.066406 C 12.519531 9.453125 11.386719 10.582031 10 10.582031 Z M 10 10.582031 "/>
</g>
</svg>
