<?xml version="1.0" encoding="UTF-8"?>
<svg xmlns="http://www.w3.org/2000/svg" xmlns:xlink="http://www.w3.org/1999/xlink" width="15pt" height="15pt" viewBox="0 0 15 15" version="1.1">
<g id="surface1">
<path style=" stroke:none;fill-rule:nonzero;fill:rgb(0%,0%,0%);fill-opacity:1;" d="M 5.214844 2.929688 C 5.214844 2.605469 5.476562 2.34375 5.800781 2.34375 L 10.722656 2.34375 C 12.015625 2.34375 13.066406 3.394531 13.066406 4.6875 L 13.066406 9.460938 C 13.066406 9.785156 12.804688 10.046875 12.480469 10.046875 C 12.15625 10.046875 11.894531 9.785156 11.894531 9.460938 L 11.894531 4.6875 C 11.894531 4.042969 11.367188 3.515625 10.722656 3.515625 L 5.800781 3.515625 C 5.476562 3.515625 5.214844 3.253906 5.214844 2.929688 Z M 14.824219 10.042969 C 14.59375 9.816406 14.222656 9.816406 13.996094 10.046875 L 12.691406 11.367188 C 12.636719 11.425781 12.566406 11.453125 12.488281 11.453125 C 12.410156 11.453125 12.335938 11.425781 12.28125 11.371094 L 10.960938 10.046875 C 10.734375 9.816406 10.363281 9.816406 10.132812 10.042969 C 9.902344 10.273438 9.902344 10.644531 10.132812 10.871094 L 11.453125 12.195312 C 11.730469 12.472656 12.097656 12.625 12.488281 12.625 C 12.878906 12.625 13.246094 12.472656 13.527344 12.195312 L 14.832031 10.871094 C 15.058594 10.640625 15.054688 10.269531 14.824219 10.042969 Z M 9.140625 11.484375 L 4.277344 11.484375 C 3.632812 11.484375 3.105469 10.957031 3.105469 10.3125 L 3.105469 5.390625 C 3.105469 5.066406 2.84375 4.804688 2.519531 4.804688 C 2.195312 4.804688 1.933594 5.066406 1.933594 5.390625 L 1.933594 10.3125 C 1.933594 11.605469 2.984375 12.65625 4.277344 12.65625 L 9.140625 12.65625 C 9.464844 12.65625 9.726562 12.394531 9.726562 12.070312 C 9.726562 11.746094 9.464844 11.484375 9.140625 11.484375 Z M 2.511719 3.515625 C 2.589844 3.515625 2.664062 3.546875 2.71875 3.601562 L 4.039062 4.925781 C 4.152344 5.039062 4.304688 5.097656 4.453125 5.097656 C 4.601562 5.097656 4.753906 5.039062 4.867188 4.925781 C 5.097656 4.699219 5.097656 4.328125 4.867188 4.097656 L 3.546875 2.773438 C 3.269531 2.496094 2.902344 2.34375 2.511719 2.34375 C 2.121094 2.34375 1.753906 2.496094 1.472656 2.777344 L 0.167969 4.101562 C -0.0585938 4.332031 -0.0546875 4.703125 0.175781 4.929688 C 0.40625 5.15625 0.777344 5.152344 1.003906 4.921875 L 2.308594 3.601562 C 2.363281 3.546875 2.433594 3.515625 2.511719 3.515625 Z M 2.511719 3.515625 "/>
</g>
</svg>
