<?xml version="1.0" encoding="UTF-8"?>
<svg xmlns="http://www.w3.org/2000/svg" xmlns:xlink="http://www.w3.org/1999/xlink" width="10pt" height="10pt" viewBox="0 0 10 10" version="1.1">
<g id="surface1">
<path style=" stroke:none;fill-rule:nonzero;fill:rgb(0%,0%,0%);fill-opacity:1;" d="M 9.679688 9.109375 L 7.300781 6.632812 C 7.914062 5.90625 8.246094 4.992188 8.246094 4.039062 C 8.246094 1.8125 6.4375 0 4.210938 0 C 1.984375 0 0.171875 1.8125 0.171875 4.039062 C 0.171875 6.265625 1.984375 8.074219 4.210938 8.074219 C 5.046875 8.074219 5.84375 7.824219 6.523438 7.34375 L 8.921875 9.839844 C 9.023438 9.941406 9.15625 10 9.300781 10 C 9.4375 10 9.566406 9.949219 9.664062 9.851562 C 9.875 9.652344 9.882812 9.316406 9.679688 9.109375 Z M 4.210938 1.054688 C 5.855469 1.054688 7.195312 2.390625 7.195312 4.039062 C 7.195312 5.683594 5.855469 7.023438 4.210938 7.023438 C 2.566406 7.023438 1.226562 5.683594 1.226562 4.039062 C 1.226562 2.390625 2.566406 1.054688 4.210938 1.054688 Z M 4.210938 1.054688 "/>
</g>
</svg>
