<?xml version="1.0" encoding="UTF-8"?>
<svg xmlns="http://www.w3.org/2000/svg" xmlns:xlink="http://www.w3.org/1999/xlink" width="20pt" height="20pt" viewBox="0 0 20 20" version="1.1">
<g id="surface1">
<path style=" stroke:none;fill-rule:nonzero;fill:rgb(0%,0%,0%);fill-opacity:1;" d="M 9.925781 10.777344 C 9.949219 10.777344 9.96875 10.777344 9.992188 10.777344 C 10.003906 10.777344 10.011719 10.777344 10.019531 10.777344 C 10.03125 10.777344 10.046875 10.777344 10.058594 10.777344 C 11.273438 10.753906 12.253906 10.328125 12.980469 9.511719 C 14.574219 7.714844 14.308594 4.632812 14.28125 4.339844 C 14.175781 2.132812 13.132812 1.078125 12.273438 0.582031 C 11.628906 0.214844 10.878906 0.015625 10.042969 0 L 10.015625 0 C 10.011719 0 10.003906 0 9.996094 0 L 9.972656 0 C 9.511719 0 8.609375 0.0742188 7.746094 0.566406 C 6.875 1.058594 5.816406 2.117188 5.710938 4.339844 C 5.683594 4.632812 5.417969 7.714844 7.011719 9.511719 C 7.734375 10.328125 8.714844 10.753906 9.925781 10.777344 Z M 6.816406 4.445312 C 6.816406 4.429688 6.820312 4.417969 6.820312 4.410156 C 6.957031 1.441406 9.066406 1.121094 9.96875 1.121094 L 9.984375 1.121094 C 9.992188 1.121094 10.007812 1.121094 10.019531 1.121094 C 11.136719 1.148438 13.039062 1.601562 13.167969 4.410156 C 13.167969 4.421875 13.167969 4.4375 13.171875 4.445312 C 13.175781 4.472656 13.464844 7.289062 12.148438 8.773438 C 11.625 9.359375 10.929688 9.648438 10.015625 9.660156 C 10.007812 9.660156 10.003906 9.660156 9.992188 9.660156 C 9.984375 9.660156 9.980469 9.660156 9.972656 9.660156 C 9.0625 9.648438 8.363281 9.359375 7.84375 8.773438 C 6.53125 7.296875 6.8125 4.46875 6.816406 4.445312 Z M 6.816406 4.445312 "/>
<path style=" stroke:none;fill-rule:nonzero;fill:rgb(0%,0%,0%);fill-opacity:1;" d="M 18.503906 15.886719 C 18.503906 15.882812 18.503906 15.878906 18.503906 15.875 C 18.503906 15.839844 18.5 15.808594 18.5 15.769531 C 18.476562 14.953125 18.421875 13.035156 16.625 12.421875 C 16.613281 12.417969 16.59375 12.414062 16.582031 12.410156 C 14.714844 11.933594 13.164062 10.855469 13.144531 10.84375 C 12.894531 10.664062 12.546875 10.726562 12.367188 10.980469 C 12.1875 11.230469 12.25 11.578125 12.503906 11.757812 C 12.574219 11.808594 14.222656 12.953125 16.285156 13.484375 C 17.25 13.828125 17.359375 14.859375 17.386719 15.804688 C 17.386719 15.839844 17.386719 15.875 17.390625 15.90625 C 17.394531 16.28125 17.371094 16.855469 17.304688 17.1875 C 16.632812 17.570312 14.003906 18.886719 10.003906 18.886719 C 6.019531 18.886719 3.371094 17.566406 2.695312 17.183594 C 2.628906 16.851562 2.601562 16.277344 2.609375 15.902344 C 2.609375 15.871094 2.613281 15.835938 2.613281 15.800781 C 2.640625 14.855469 2.75 13.824219 3.714844 13.480469 C 5.777344 12.949219 7.425781 11.800781 7.496094 11.753906 C 7.75 11.574219 7.8125 11.226562 7.632812 10.976562 C 7.453125 10.722656 7.105469 10.660156 6.855469 10.839844 C 6.835938 10.851562 5.292969 11.929688 3.417969 12.402344 C 3.398438 12.410156 3.386719 12.414062 3.375 12.417969 C 1.578125 13.035156 1.523438 14.953125 1.5 15.765625 C 1.5 15.804688 1.5 15.835938 1.496094 15.871094 C 1.496094 15.875 1.496094 15.878906 1.496094 15.882812 C 1.492188 16.097656 1.488281 17.203125 1.707031 17.757812 C 1.746094 17.867188 1.824219 17.957031 1.921875 18.019531 C 2.046875 18.101562 5.023438 20 10.007812 20 C 14.988281 20 17.964844 18.097656 18.089844 18.019531 C 18.1875 17.957031 18.265625 17.867188 18.304688 17.757812 C 18.511719 17.207031 18.507812 16.101562 18.503906 15.886719 Z M 18.503906 15.886719 "/>
</g>
</svg>
