<?xml version="1.0" encoding="UTF-8"?>
<svg xmlns="http://www.w3.org/2000/svg" xmlns:xlink="http://www.w3.org/1999/xlink" width="38pt" height="38pt" viewBox="0 0 38 38" version="1.1">
<g id="surface1">
<path style=" stroke:none;fill-rule:nonzero;fill:rgb(0%,0%,0%);fill-opacity:1;" d="M 37.597656 15.441406 L 19.582031 2.253906 C 19.234375 2 18.765625 2 18.417969 2.253906 L 0.402344 15.441406 C -0.0351562 15.765625 -0.132812 16.382812 0.191406 16.820312 C 0.511719 17.261719 1.128906 17.359375 1.570312 17.035156 L 19 4.273438 L 36.429688 17.035156 C 36.605469 17.164062 36.808594 17.226562 37.011719 17.226562 C 37.316406 17.226562 37.617188 17.085938 37.808594 16.820312 C 38.132812 16.382812 38.035156 15.765625 37.597656 15.441406 Z M 37.597656 15.441406 "/>
<path style=" stroke:none;fill-rule:nonzero;fill:rgb(0%,0%,0%);fill-opacity:1;" d="M 32.824219 17.257812 C 32.277344 17.257812 31.835938 17.699219 31.835938 18.246094 L 31.835938 33.960938 L 23.9375 33.960938 L 23.9375 25.382812 C 23.9375 22.660156 21.722656 20.445312 19 20.445312 C 16.277344 20.445312 14.0625 22.660156 14.0625 25.382812 L 14.0625 33.960938 L 6.164062 33.960938 L 6.164062 18.246094 C 6.164062 17.703125 5.722656 17.257812 5.175781 17.257812 C 4.632812 17.257812 4.191406 17.703125 4.191406 18.246094 L 4.191406 34.949219 C 4.191406 35.496094 4.632812 35.9375 5.175781 35.9375 L 15.050781 35.9375 C 15.570312 35.9375 15.996094 35.535156 16.035156 35.027344 C 16.035156 35.003906 16.039062 34.976562 16.039062 34.949219 L 16.039062 25.382812 C 16.039062 23.75 17.367188 22.421875 19 22.421875 C 20.632812 22.421875 21.960938 23.75 21.960938 25.382812 L 21.960938 34.949219 C 21.960938 34.976562 21.964844 35.003906 21.964844 35.027344 C 22.003906 35.535156 22.429688 35.9375 22.949219 35.9375 L 32.824219 35.9375 C 33.367188 35.9375 33.808594 35.496094 33.808594 34.949219 L 33.808594 18.246094 C 33.808594 17.699219 33.367188 17.257812 32.824219 17.257812 Z M 32.824219 17.257812 "/>
</g>
</svg>
