<?xml version="1.0" encoding="UTF-8"?>
<svg xmlns="http://www.w3.org/2000/svg" xmlns:xlink="http://www.w3.org/1999/xlink" width="20pt" height="20pt" viewBox="0 0 20 20" version="1.1">
<g id="surface1">
<path style=" stroke:none;fill-rule:nonzero;fill:rgb(0%,0%,0%);fill-opacity:1;" d="M 9.058594 9.183594 C 10.160156 9.183594 11.058594 8.289062 11.058594 7.1875 C 11.058594 6.085938 10.160156 5.1875 9.058594 5.1875 C 7.957031 5.1875 7.0625 6.085938 7.0625 7.1875 C 7.0625 8.289062 7.957031 9.183594 9.058594 9.183594 Z M 9.058594 6.359375 C 9.515625 6.359375 9.886719 6.730469 9.886719 7.1875 C 9.886719 7.640625 9.515625 8.011719 9.058594 8.011719 C 8.601562 8.011719 8.234375 7.640625 8.234375 7.1875 C 8.234375 6.730469 8.601562 6.359375 9.058594 6.359375 Z M 9.058594 6.359375 "/>
<path style=" stroke:none;fill-rule:nonzero;fill:rgb(0%,0%,0%);fill-opacity:1;" d="M 19.269531 1.445312 L 0.730469 1.445312 C 0.328125 1.445312 0 1.773438 0 2.175781 L 0 17.867188 C 0 18.269531 0.328125 18.597656 0.730469 18.597656 L 19.269531 18.597656 C 19.671875 18.597656 20 18.269531 20 17.867188 L 20 2.175781 C 20 1.773438 19.671875 1.445312 19.269531 1.445312 Z M 18.828125 2.617188 L 18.828125 11.890625 L 15.140625 8.207031 C 14.902344 7.964844 14.511719 7.964844 14.269531 8.207031 L 9.058594 13.417969 L 5.730469 10.089844 C 5.613281 9.972656 5.457031 9.90625 5.292969 9.90625 C 5.128906 9.90625 4.972656 9.972656 4.855469 10.089844 L 1.171875 13.773438 L 1.171875 2.617188 Z M 1.171875 17.425781 L 1.171875 15.429688 L 5.292969 11.308594 L 8.621094 14.640625 C 8.738281 14.757812 8.894531 14.820312 9.058594 14.820312 C 9.222656 14.820312 9.378906 14.757812 9.496094 14.640625 L 14.707031 9.425781 L 18.828125 13.546875 L 18.828125 17.425781 Z M 1.171875 17.425781 "/>
</g>
</svg>
