<?xml version="1.0" encoding="UTF-8"?>
<svg xmlns="http://www.w3.org/2000/svg" xmlns:xlink="http://www.w3.org/1999/xlink" width="13pt" height="13pt" viewBox="0 0 13 13" version="1.1">
<g id="surface1">
<path style=" stroke:none;fill-rule:nonzero;fill:rgb(0%,0%,0%);fill-opacity:1;" d="M 6.5 12.277344 C 6.316406 12.277344 6.136719 12.210938 5.996094 12.089844 C 5.472656 11.628906 4.964844 11.195312 4.519531 10.816406 L 4.515625 10.816406 C 3.207031 9.699219 2.078125 8.734375 1.289062 7.785156 C 0.410156 6.722656 0 5.71875 0 4.617188 C 0 3.550781 0.367188 2.5625 1.03125 1.84375 C 1.703125 1.113281 2.628906 0.710938 3.632812 0.710938 C 4.382812 0.710938 5.070312 0.949219 5.675781 1.417969 C 5.980469 1.652344 6.257812 1.941406 6.5 2.277344 C 6.742188 1.941406 7.019531 1.652344 7.324219 1.417969 C 7.929688 0.949219 8.617188 0.710938 9.367188 0.710938 C 10.371094 0.710938 11.296875 1.113281 11.96875 1.84375 C 12.632812 2.5625 13 3.550781 13 4.617188 C 13 5.71875 12.589844 6.722656 11.710938 7.785156 C 10.921875 8.734375 9.792969 9.699219 8.484375 10.8125 C 8.035156 11.195312 7.527344 11.628906 7.003906 12.089844 C 6.863281 12.210938 6.683594 12.277344 6.5 12.277344 Z M 3.632812 1.472656 C 2.84375 1.472656 2.117188 1.789062 1.589844 2.359375 C 1.054688 2.9375 0.761719 3.742188 0.761719 4.617188 C 0.761719 5.542969 1.105469 6.371094 1.875 7.300781 C 2.621094 8.199219 3.726562 9.140625 5.011719 10.234375 L 5.011719 10.238281 C 5.460938 10.617188 5.96875 11.050781 6.5 11.515625 C 7.03125 11.050781 7.539062 10.617188 7.988281 10.234375 C 9.273438 9.140625 10.378906 8.199219 11.125 7.300781 C 11.894531 6.371094 12.238281 5.542969 12.238281 4.617188 C 12.238281 3.742188 11.945312 2.9375 11.410156 2.359375 C 10.882812 1.789062 10.15625 1.472656 9.367188 1.472656 C 8.789062 1.472656 8.261719 1.65625 7.792969 2.019531 C 7.375 2.339844 7.082031 2.75 6.914062 3.035156 C 6.824219 3.183594 6.671875 3.269531 6.5 3.269531 C 6.328125 3.269531 6.175781 3.183594 6.085938 3.035156 C 5.917969 2.75 5.625 2.339844 5.207031 2.019531 C 4.738281 1.65625 4.210938 1.472656 3.632812 1.472656 Z M 3.632812 1.472656 "/>
</g>
</svg>
