<?xml version="1.0" encoding="UTF-8"?>
<svg xmlns="http://www.w3.org/2000/svg" xmlns:xlink="http://www.w3.org/1999/xlink" width="38pt" height="38pt" viewBox="0 0 38 38" version="1.1">
<g id="surface1">
<path style=" stroke:none;fill-rule:nonzero;fill:rgb(1.176471%,66.27451%,95.686275%);fill-opacity:1;" d="M 38 7.21875 C 36.585938 7.835938 35.082031 8.25 33.511719 8.449219 C 35.125 7.484375 36.359375 5.96875 36.9375 4.140625 C 35.433594 5.039062 33.769531 5.675781 32 6.027344 C 30.570312 4.503906 28.53125 3.5625 26.308594 3.5625 C 21.996094 3.5625 18.523438 7.0625 18.523438 11.355469 C 18.523438 11.972656 18.574219 12.566406 18.703125 13.132812 C 12.226562 12.816406 6.496094 9.710938 2.644531 4.984375 C 1.972656 6.148438 1.578125 7.484375 1.578125 8.921875 C 1.578125 11.617188 2.96875 14.011719 5.039062 15.394531 C 3.789062 15.371094 2.558594 15.007812 1.519531 14.433594 C 1.519531 14.460938 1.519531 14.488281 1.519531 14.519531 C 1.519531 18.304688 4.21875 21.449219 7.761719 22.175781 C 7.128906 22.347656 6.4375 22.433594 5.71875 22.433594 C 5.21875 22.433594 4.714844 22.402344 4.242188 22.300781 C 5.253906 25.382812 8.117188 27.652344 11.523438 27.726562 C 8.871094 29.800781 5.507812 31.046875 1.863281 31.046875 C 1.226562 31.046875 0.613281 31.019531 0 30.941406 C 3.449219 33.167969 7.539062 34.4375 11.949219 34.4375 C 26.285156 34.4375 34.125 22.5625 34.125 12.269531 C 34.125 11.925781 34.113281 11.59375 34.09375 11.261719 C 35.640625 10.164062 36.941406 8.792969 38 7.21875 Z M 38 7.21875 "/>
</g>
</svg>
