<?xml version="1.0" encoding="UTF-8"?>
<svg xmlns="http://www.w3.org/2000/svg" xmlns:xlink="http://www.w3.org/1999/xlink" width="38pt" height="38pt" viewBox="0 0 38 38" version="1.1">
<g id="surface1">
<path style=" stroke:none;fill-rule:nonzero;fill:rgb(0%,0%,0%);fill-opacity:1;" d="M 33.359375 4.539062 L 4.648438 4.539062 C 2.082031 4.539062 0 6.625 0 9.1875 L 0 28.8125 C 0 31.375 2.082031 33.460938 4.648438 33.460938 L 33.351562 33.460938 C 35.917969 33.460938 38 31.375 38 28.8125 L 38 9.195312 C 38.007812 6.632812 35.925781 4.539062 33.359375 4.539062 Z M 35.886719 28.8125 C 35.886719 30.203125 34.753906 31.335938 33.359375 31.335938 L 4.648438 31.335938 C 3.253906 31.335938 2.121094 30.203125 2.121094 28.8125 L 2.121094 9.195312 C 2.121094 7.804688 3.253906 6.671875 4.648438 6.671875 L 33.351562 6.671875 C 34.746094 6.671875 35.878906 7.804688 35.878906 9.195312 L 35.878906 28.8125 Z M 35.886719 28.8125 "/>
<path style=" stroke:none;fill-rule:nonzero;fill:rgb(0%,0%,0%);fill-opacity:1;" d="M 23.964844 18.757812 L 33.257812 10.421875 C 33.691406 10.027344 33.730469 9.359375 33.335938 8.921875 C 32.945312 8.488281 32.277344 8.449219 31.835938 8.839844 L 19.019531 20.34375 L 16.519531 18.113281 C 16.511719 18.105469 16.503906 18.097656 16.503906 18.089844 C 16.449219 18.03125 16.394531 17.984375 16.332031 17.9375 L 6.15625 8.832031 C 5.714844 8.441406 5.046875 8.480469 4.65625 8.921875 C 4.261719 9.359375 4.300781 10.027344 4.742188 10.421875 L 14.144531 18.828125 L 4.78125 27.59375 C 4.355469 27.996094 4.332031 28.664062 4.734375 29.09375 C 4.945312 29.316406 5.230469 29.433594 5.511719 29.433594 C 5.769531 29.433594 6.03125 29.339844 6.234375 29.152344 L 15.742188 20.257812 L 18.320312 22.5625 C 18.523438 22.742188 18.777344 22.828125 19.027344 22.828125 C 19.277344 22.828125 19.539062 22.734375 19.734375 22.554688 L 22.386719 20.179688 L 31.835938 29.160156 C 32.039062 29.355469 32.308594 29.449219 32.566406 29.449219 C 32.851562 29.449219 33.125 29.339844 33.335938 29.121094 C 33.738281 28.695312 33.722656 28.019531 33.296875 27.617188 Z M 23.964844 18.757812 "/>
</g>
</svg>
