<?xml version="1.0" encoding="UTF-8"?>
<svg xmlns="http://www.w3.org/2000/svg" xmlns:xlink="http://www.w3.org/1999/xlink" width="20pt" height="20pt" viewBox="0 0 20 20" version="1.1">
<g id="surface1">
<path style=" stroke:none;fill-rule:nonzero;fill:rgb(0%,0%,0%);fill-opacity:1;" d="M 10 5.332031 C 11.46875 5.332031 12.667969 4.136719 12.667969 2.667969 C 12.667969 1.195312 11.46875 0 10 0 C 8.53125 0 7.332031 1.195312 7.332031 2.667969 C 7.332031 4.136719 8.53125 5.332031 10 5.332031 Z M 10 0.667969 C 11.101562 0.667969 12 1.5625 12 2.667969 C 12 3.769531 11.101562 4.667969 10 4.667969 C 8.898438 4.667969 8 3.769531 8 2.667969 C 8 1.5625 8.898438 0.667969 10 0.667969 Z M 10 0.667969 "/>
<path style=" stroke:none;fill-rule:nonzero;fill:rgb(0%,0%,0%);fill-opacity:1;" d="M 10 14.667969 C 8.53125 14.667969 7.332031 15.863281 7.332031 17.332031 C 7.332031 18.804688 8.53125 20 10 20 C 11.46875 20 12.667969 18.804688 12.667969 17.332031 C 12.667969 15.863281 11.46875 14.667969 10 14.667969 Z M 10 19.332031 C 8.898438 19.332031 8 18.4375 8 17.332031 C 8 16.230469 8.898438 15.332031 10 15.332031 C 11.101562 15.332031 12 16.230469 12 17.332031 C 12 18.4375 11.101562 19.332031 10 19.332031 Z M 10 19.332031 "/>
<path style=" stroke:none;fill-rule:nonzero;fill:rgb(0%,0%,0%);fill-opacity:1;" d="M 10 7.332031 C 8.53125 7.332031 7.332031 8.53125 7.332031 10 C 7.332031 11.46875 8.53125 12.667969 10 12.667969 C 11.46875 12.667969 12.667969 11.46875 12.667969 10 C 12.667969 8.53125 11.46875 7.332031 10 7.332031 Z M 10 12 C 8.898438 12 8 11.101562 8 10 C 8 8.898438 8.898438 8 10 8 C 11.101562 8 12 8.898438 12 10 C 12 11.101562 11.101562 12 10 12 Z M 10 12 "/>
</g>
</svg>
