<?xml version="1.0" encoding="UTF-8"?>
<svg xmlns="http://www.w3.org/2000/svg" xmlns:xlink="http://www.w3.org/1999/xlink" width="20pt" height="20pt" viewBox="0 0 20 20" version="1.1">
<g id="surface1">
<path style=" stroke:none;fill-rule:nonzero;fill:rgb(0%,0%,0%);fill-opacity:1;" d="M 10.570312 8.671875 C 10.351562 8.890625 10.351562 9.242188 10.570312 9.460938 C 11.480469 10.367188 11.480469 11.84375 10.570312 12.75 L 5.808594 17.515625 C 4.902344 18.421875 3.425781 18.421875 2.519531 17.515625 L 1.800781 16.796875 C 0.894531 15.890625 0.894531 14.414062 1.800781 13.507812 L 6.566406 8.746094 C 6.785156 8.523438 6.785156 8.171875 6.566406 7.953125 C 6.347656 7.734375 5.996094 7.734375 5.773438 7.953125 L 1.011719 12.71875 C 0.359375 13.367188 0 14.234375 0 15.152344 C 0 16.074219 0.355469 16.9375 1.011719 17.589844 L 1.726562 18.304688 C 2.398438 18.976562 3.28125 19.3125 4.164062 19.3125 C 5.046875 19.3125 5.929688 18.976562 6.597656 18.304688 L 11.363281 13.542969 C 12.703125 12.199219 12.703125 10.011719 11.363281 8.671875 C 11.148438 8.449219 10.792969 8.449219 10.570312 8.671875 Z M 10.570312 8.671875 "/>
<path style=" stroke:none;fill-rule:nonzero;fill:rgb(0%,0%,0%);fill-opacity:1;" d="M 18.992188 2.410156 L 18.277344 1.695312 C 16.933594 0.351562 14.746094 0.351562 13.40625 1.695312 L 8.640625 6.457031 C 7.300781 7.800781 7.300781 9.988281 8.640625 11.328125 C 8.859375 11.550781 9.214844 11.550781 9.433594 11.328125 C 9.652344 11.109375 9.652344 10.757812 9.433594 10.539062 C 8.523438 9.632812 8.523438 8.15625 9.433594 7.25 L 14.195312 2.484375 C 15.105469 1.578125 16.578125 1.578125 17.484375 2.484375 L 18.203125 3.203125 C 19.109375 4.109375 19.109375 5.585938 18.203125 6.492188 L 13.4375 11.253906 C 13.21875 11.476562 13.21875 11.828125 13.4375 12.046875 C 13.546875 12.152344 13.691406 12.210938 13.832031 12.210938 C 13.972656 12.210938 14.117188 12.160156 14.226562 12.046875 L 18.988281 7.28125 C 19.640625 6.632812 20 5.765625 20 4.847656 C 20 3.925781 19.644531 3.0625 18.992188 2.410156 Z M 18.992188 2.410156 "/>
</g>
</svg>
